<?xml version="1.0" encoding="utf-8"?>
<!-- Uploaded to: SVG Repo, www.svgrepo.com, Generator: SVG Repo Mixer Tools -->
<svg width="800px" height="800px" viewBox="0 0 1024 1024" class="icon"  version="1.1" xmlns="http://www.w3.org/2000/svg"><path d="M723.2 258.133333H302.933333L375.466667 149.333333c8.533333-12.8 21.333333-19.2 36.266666-19.2h204.8c14.933333 0 27.733333 6.4 36.266667 19.2l70.4 108.8z" fill="#512DA8" /><path d="M298.666667 234.666667H170.666667V196.266667C170.666667 181.333333 181.333333 170.666667 196.266667 170.666667h76.8c14.933333 0 25.6 10.666667 25.6 25.6V234.666667z" fill="#8667C4" /><path d="M853.333333 896H170.666667c-46.933333 0-85.333333-38.4-85.333334-85.333333V298.666667c0-46.933333 38.4-85.333333 85.333334-85.333334h682.666666c46.933333 0 85.333333 38.4 85.333334 85.333334v512c0 46.933333-38.4 85.333333-85.333334 85.333333z" fill="#5E35B1" /><path d="M512 554.666667m-256 0a256 256 0 1 0 512 0 256 256 0 1 0-512 0Z" fill="#512DA8" /><path d="M512 554.666667m-192 0a192 192 0 1 0 384 0 192 192 0 1 0-384 0Z" fill="#B388FF" /><path d="M618.666667 490.666667c-25.6-29.866667-64-46.933333-102.4-46.933334-38.4 0-76.8 17.066667-102.4 46.933334-10.666667 10.666667-8.533333 27.733333 2.133333 38.4s27.733333 8.533333 38.4-2.133334c32-36.266667 91.733333-36.266667 123.733333 0 6.4 6.4 12.8 8.533333 21.333334 8.533334 6.4 0 12.8-2.133333 19.2-6.4 8.533333-8.533333 10.666667-27.733333 0-38.4z" fill="#C7A7FF" /><path d="M192 288a42.666667 32 0 1 0 85.333333 0 42.666667 32 0 1 0-85.333333 0Z" fill="#8667C4" /></svg>