<?xml version="1.0" ?>
<!-- Uploaded to: SVG Repo, www.svgrepo.com, Generator: SVG Repo Mixer Tools -->
<svg width="800px" height="800px" viewBox="0 0 512 512" id="Layer_1" version="1.1" xml:space="preserve" xmlns="http://www.w3.org/2000/svg" xmlns:xlink="http://www.w3.org/1999/xlink">
<style type="text/css">
	.st0{fill:#E6E6E6;}
	.st1{fill:#69C9C9;}
	.st2{fill:#4D5152;}
</style>
<g>
<path class="st0" d="M56.3,322.3v-10h-26c3.5-49.6,32.8-94,77.1-116.7c16.2,17.2,39.3,28,64.8,28c2.3,0,4.6-0.1,6.9-0.3   c2,16.9,7.7,32.7,16.4,46.5c-25.3,13.1-47.3,31.1-64.9,52.4L56.3,322.3z"/>
</g>
<g>
<path class="st1" d="M262.1,446.4H102.4c3.6-68.3,43.9-129.7,105.3-160.2c20.8,23,50.9,37.5,84.4,37.5c33.4,0,63.5-14.5,84.4-37.5   c61.4,30.5,101.7,91.9,105.3,160.2H322.1v10h-60V446.4z"/>
</g>
<g>
<path class="st2" d="M388.7,269.9c10.9-17.4,17.2-38,17.2-60c0-62.7-51-113.8-113.8-113.8c-12.7,0-25.1,2.1-36.9,6.1   c-13.1-33.8-45.8-56.6-83-56.6c-49.1,0-89,39.9-89,89c0,16.3,4.4,31.6,12.1,44.8C43.1,207.6,10,262.4,10,322.3v10h46.3v-20h-26   c3.5-49.6,32.8-94,77.1-116.7c16.2,17.2,39.3,28,64.8,28c2.3,0,4.6-0.1,6.9-0.3c2,16.9,7.7,32.7,16.4,46.5   C126.2,305.8,82.1,377.8,82.1,456.4v10h179.9v-20H102.4c3.6-68.3,43.9-129.7,105.3-160.2c20.8,23,50.9,37.5,84.4,37.5   c33.4,0,63.5-14.5,84.4-37.5c61.4,30.5,101.7,91.9,105.3,160.2H322.1v20H502v-10C502,377.8,457.9,305.8,388.7,269.9z M292.1,303.7   c-51.7,0-93.8-42.1-93.8-93.8c0-16.3,4.3-32.4,12.3-46.5l-17.4-9.9c-8.7,15.2-13.7,32.3-14.7,49.9c-2.1,0.2-4.2,0.3-6.2,0.3   c-38.1,0-69-31-69-69s31-69,69-69c29.1,0,54.7,18.1,64.6,44.8c-11.5,6.4-21.9,14.8-30.8,25l15.1,13.1   c17.8-20.6,43.7-32.3,70.8-32.3c51.7,0,93.8,42.1,93.8,93.8S343.8,303.7,292.1,303.7z"/>
<rect class="st2" height="20" width="20" x="282.1" y="446.4"/>
<rect class="st2" height="20" width="20" x="76.3" y="312.3"/>
</g>
</svg>