<?xml version="1.0" encoding="iso-8859-1"?>
<!-- Uploaded to: SVG Repo, www.svgrepo.com, Generator: SVG Repo Mixer Tools -->
<svg height="800px" width="800px" version="1.1" id="Layer_1" xmlns="http://www.w3.org/2000/svg" xmlns:xlink="http://www.w3.org/1999/xlink" 
	 viewBox="0 0 508 508" xml:space="preserve">
<path style="fill:#FFFFFF;" d="M465.5,320.1h-423c-7.8,0-14.1,6.3-14.1,14.1v131.5c0,7.8,6.3,14.1,14.1,14.1h423
	c7.8,0,14.1-6.3,14.1-14.1V334.2C479.6,326.4,473.3,320.1,465.5,320.1z"/>
<path style="fill:#56ACE0;" d="M433.6,42.3c0-7.8-6.3-14.1-14.1-14.1h-329c-7.8,0-14.1,6.3-14.1,14.1v249.6h357.2V42.3z"/>
<path style="fill:#FFC10D;" d="M465.5,320.1h-423c-7.8,0-14.1,6.3-14.1,14.1V365h47.1c7.8,0,14.1,6.3,14.1,14.1
	c0,7.8-6.3,14.1-14.1,14.1H28.4V416h22.9c7.8,0,14.1,6.3,14.1,14.1s-6.3,14.1-14.1,14.1H28.4v21.6c0,7.8,6.3,14.1,14.1,14.1h423
	c7.8,0,14.1-6.3,14.1-14.1V334.2C479.6,326.4,473.3,320.1,465.5,320.1z"/>
<g>
	<path style="fill:#194F82;" d="M166.8,98.9c13,0,23.6,10.6,23.6,23.6c0,7.8,6.3,14.1,14.1,14.1s14.1-6.3,14.1-14.1
		c0-23.7-16-43.6-37.7-49.8V61.9c0-7.8-6.3-14.1-14.1-14.1s-14.1,6.3-14.1,14.1v10.8C131,78.9,115,98.8,115,122.5
		c0,28.6,23.2,51.8,51.8,51.8c-0.4,0.1,0,0,0.1,0c12.1,1.1,23.5,11,23.5,23.4c0,13-10.6,23.6-23.6,23.6s-23.6-10.6-23.6-23.6
		c0-7.8-6.3-14.1-14.1-14.1s-14.1,6.3-14.1,14.1c0,23.7,16,43.6,37.7,49.8v10.7c0,7.8,6.3,14.1,14.1,14.1s14.1-6.3,14.1-14.1v-10.7
		c21.7-6.2,37.7-26.1,37.7-49.8c0-28.6-25.2-51.7-53.8-51.7c0.4-0.1,0,0-0.1,0c-12-1.1-21.5-11.2-21.5-23.5
		C143.2,109.5,153.8,98.9,166.8,98.9z"/>
	<path style="fill:#194F82;" d="M400.8,60.2h-142c-7.8,0-14.1,6.3-14.1,14.1s6.3,14.1,14.1,14.1h142c7.8,0,14.1-6.3,14.1-14.1
		S408.6,60.2,400.8,60.2z"/>
	<path style="fill:#194F82;" d="M400.8,117.4h-142c-7.8,0-14.1,6.3-14.1,14.1s6.3,14.1,14.1,14.1h142c7.8,0,14.1-6.3,14.1-14.1
		S408.6,117.4,400.8,117.4z"/>
	<path style="fill:#194F82;" d="M400.8,174.5h-142c-7.8,0-14.1,6.3-14.1,14.1s6.3,14.1,14.1,14.1h142c7.8,0,14.1-6.3,14.1-14.1
		S408.6,174.5,400.8,174.5z"/>
	<path style="fill:#194F82;" d="M400.8,231.7h-142c-7.8,0-14.1,6.3-14.1,14.1s6.3,14.1,14.1,14.1h142c7.8,0,14.1-6.3,14.1-14.1
		C414.9,238,408.6,231.7,400.8,231.7z"/>
	<path style="fill:#194F82;" d="M344.7,368.3c-7.8,0-14.1,6.3-14.1,14.1v20.9H177.4v-20.9c0-7.8-6.3-14.1-14.1-14.1
		s-14.1,6.3-14.1,14.1v35c0,7.8,6.3,14.1,14.1,14.1h181.4c7.8,0,14.1-6.3,14.1-14.1v-35C358.8,374.7,352.5,368.3,344.7,368.3z"/>
	<path style="fill:#194F82;" d="M465.5,291.9h-3.7V42.3c0-23.3-19-42.3-42.3-42.3h-329C67.2,0,48.2,19,48.2,42.3v249.6h-5.7
		c-23.3,0-42.3,19-42.3,42.3v131.5c0,23.3,19,42.3,42.3,42.3h423c23.3,0,42.3-19,42.3-42.3V334.2
		C507.8,310.9,488.8,291.9,465.5,291.9z M76.4,42.3c0-7.8,6.3-14.1,14.1-14.1h329c7.8,0,14.1,6.3,14.1,14.1v249.6H76.4V42.3z
		 M479.6,465.7c0,7.8-6.3,14.1-14.1,14.1h-423c-7.8,0-14.1-6.3-14.1-14.1V334.2c0-7.8,6.3-14.1,14.1-14.1h423
		c7.8,0,14.1,6.3,14.1,14.1V465.7z"/>
</g>
</svg>