<?xml version="1.0" ?>
<!-- Uploaded to: SVG Repo, www.svgrepo.com, Generator: SVG Repo Mixer Tools -->
<svg width="800px" height="800px" viewBox="0 0 48 48" id="svg5" version="1.1" xml:space="preserve" xmlns="http://www.w3.org/2000/svg" xmlns:svg="http://www.w3.org/2000/svg">
<defs id="defs2"/>
<g id="layer1" transform="translate(-98,-233)">
<path d="m 107.00001,238 h 22 v 38 h -22 z" id="path20367" style="color:#000000;fill:#e7e7e7;fill-opacity:1;fill-rule:evenodd;stroke-width:1.99999;stroke-linecap:round;stroke-linejoin:round;stroke-miterlimit:4.1"/>
<path d="m 107,238 v 38 h 15.50391 a 20.065819,27.908127 0 0 0 3.41015,-15.45508 20.065819,27.908127 0 0 0 -8.25,-22.54492 z" id="path27184" style="fill:#f8f8f8;fill-opacity:1;fill-rule:evenodd;stroke:none;stroke-width:2.00001;stroke-linecap:round;stroke-linejoin:round;stroke-miterlimit:4.1;stroke-opacity:1"/>
<path d="m 107,270 v 6 h 22 v -6 z" id="path12190" style="fill:#ff5576;fill-opacity:1;fill-rule:evenodd;stroke:none;stroke-width:2;stroke-linecap:round;stroke-linejoin:round;stroke-miterlimit:4.1;stroke-opacity:1"/>
<path d="m 112,238 2.4,3 h 7.2 l 2.4,-3 z" id="path6230" style="fill:#ff5576;fill-opacity:1;fill-rule:evenodd;stroke:none;stroke-width:2;stroke-linecap:round;stroke-linejoin:round;stroke-miterlimit:4.1"/>
<path d="m 137.10056,256 c 0,4.41826 -3.58171,7.99998 -7.99998,7.99998 -4.41828,0 -8,-3.58172 -8,-7.99998 0,-4.41827 3.58172,-8 8,-8 4.41827,0 7.99998,3.58173 7.99998,8 z" id="path4713" style="fill:#f2a50c;fill-opacity:1;fill-rule:evenodd;stroke:none;stroke-width:2;stroke-linecap:round;stroke-linejoin:round;stroke-miterlimit:4.1;stroke-opacity:1"/>
<path d="m 129.09961,248 c -4.41828,0 -8,3.58173 -8,8 0,2.35016 1.01328,4.46411 2.62695,5.92773 a 9.3848972,9.5092163 0 0 0 1.78516,0.19532 9.3848972,9.5092163 0 0 0 9.38476,-9.50977 9.3848972,9.5092163 0 0 0 -0.3164,-2.43945 C 133.1484,248.82701 131.22034,248 129.09961,248 Z" id="path19410" style="fill:#f7c63d;fill-opacity:1;fill-rule:evenodd;stroke:none;stroke-width:2;stroke-linecap:round;stroke-linejoin:round;stroke-miterlimit:4.1;stroke-opacity:1"/>
<path d="m 129.10156,249.73828 a 1.0057675,0.9942576 0 0 0 -1.00586,0.9961 v 0.86328 c -1.09117,0.39415 -1.89453,1.40588 -1.89453,2.60937 0,1.55135 1.33381,2.78711 2.90039,2.78711 0.52508,0 0.88672,0.36924 0.88672,0.79883 0,0.42962 -0.36165,0.79883 -0.88672,0.79883 -0.52507,0 -0.88867,-0.36921 -0.88867,-0.79883 a 1.0057675,0.9942576 0 0 0 -1.00586,-0.99414 1.0057675,0.9942576 0 0 0 -1.00586,0.99414 c 0,1.20349 0.80336,2.21523 1.89453,2.60937 v 0.86329 a 1.0057675,0.9942576 0 0 0 1.00586,0.99609 1.0057675,0.9942576 0 0 0 1.00586,-0.99609 v -0.86524 C 131.1974,260.00565 132,258.9956 132,257.79297 c 0,-1.55135 -1.33186,-2.78711 -2.89844,-2.78711 -0.52508,0 -0.88867,-0.3692 -0.88867,-0.79883 0,-0.42961 0.36358,-0.79882 0.88867,-0.79882 0.52509,0 0.88672,0.36921 0.88672,0.79882 a 1.0057675,0.9942576 0 0 0 1.00586,0.99414 A 1.0057675,0.9942576 0 0 0 132,254.20703 c 0,-1.20264 -0.8026,-2.21268 -1.89258,-2.60742 v -0.86523 a 1.0057675,0.9942576 0 0 0 -1.00586,-0.9961 z" id="path4715" style="color:#000000;fill:#808b9b;fill-opacity:1;fill-rule:evenodd;stroke:none;stroke-width:0.999996;stroke-linecap:round;stroke-linejoin:round;stroke-miterlimit:4.1;-inkscape-stroke:none"/>
<path d="m 111,253 a 1,1 0 0 0 -1,1 1,1 0 0 0 1,1 h 6 a 1,1 0 0 0 1,-1 1,1 0 0 0 -1,-1 z" id="path8400" style="color:#000000;fill:#808b9b;fill-opacity:1;fill-rule:evenodd;stroke-linecap:round;stroke-linejoin:round;stroke-miterlimit:4.1"/>
<path d="m 111,257 a 1,1 0 0 0 -1,1 1,1 0 0 0 1,1 h 3.75 a 1,1 0 0 0 1,-1 1,1 0 0 0 -1,-1 z" id="path8402" style="color:#000000;fill:#808b9b;fill-opacity:1;fill-rule:evenodd;stroke-linecap:round;stroke-linejoin:round;stroke-miterlimit:4.1"/>
<path d="m 111,246 h 7 v 4 h -7 z" id="rect8980" style="fill:#808b9b;fill-opacity:1;fill-rule:evenodd;stroke:none;stroke-width:2;stroke-linecap:round;stroke-linejoin:round;stroke-miterlimit:4.1"/>
<path d="m 111,261 a 1,1 0 0 0 -1,1 1,1 0 0 0 1,1 h 4 a 1,1 0 0 0 1,-1 1,1 0 0 0 -1,-1 z" id="path8982" style="color:#000000;fill:#808b9b;fill-opacity:1;fill-rule:evenodd;stroke-linecap:round;stroke-linejoin:round;stroke-miterlimit:4.1;-inkscape-stroke:none"/>
<circle cx="118" cy="273" id="path7000" r="1.25" style="fill:#e7e7e7;fill-opacity:1;fill-rule:evenodd;stroke:none;stroke-width:2;stroke-linecap:round;stroke-linejoin:round;stroke-miterlimit:4.1"/>
<circle cx="124.71978" cy="273" id="circle3768" r="1.25" style="fill:#e7e7e7;fill-opacity:1;fill-rule:evenodd;stroke:none;stroke-width:2;stroke-linecap:round;stroke-linejoin:round;stroke-miterlimit:4.1"/>
<circle cx="111.23853" cy="273" id="circle3770" r="1.25" style="fill:#e7e7e7;fill-opacity:1;fill-rule:evenodd;stroke:none;stroke-width:2;stroke-linecap:round;stroke-linejoin:round;stroke-miterlimit:4.1"/>
</g>
</svg>